<?xml version="1.0" encoding="utf-8"?>
<!-- Generator: Adobe Illustrator 26.0.1, SVG Export Plug-In . SVG Version: 6.00 Build 0)  -->
<svg version="1.1" id="Layer_1" xmlns="http://www.w3.org/2000/svg" xmlns:xlink="http://www.w3.org/1999/xlink" x="0px" y="0px"
	 viewBox="0 0 1080 1080" style="enable-background:new 0 0 1080 1080;" xml:space="preserve">
<style type="text/css">
	.st0{fill:#3784F9;}
	.st1{fill:#16A3F9;}
	.st2{fill:#5E67F8;}
	.st3{fill:#4D71F9;}
	.st4{font-family:'MonumentExtended-Regular';}
	.st5{font-size:97.6762px;}
	.st6{font-family:'ArialMT';}
	.st7{font-size:15.1018px;}
</style>
<g>
	<g>
		<path class="st0" d="M258.2,519.8c7.6,1.6,14.9,1.5,21.5-3.4c2.5,2,0.9,4.8,1.6,7.2c-6.4,3.8-10.1,9.5-11.8,16.5
			c-2.2,8.9-5.7,17.4-5.2,26.9c0.8,16.9,9.1,29.4,21.3,40c-0.7,2.4-4.7,2.5-3.6,6.4c0.9,3.3,0.7,7.1,0.7,10.6
			c-0.1,10.4,0.6,20.7,1.4,31c-15.8,0.2-27.8-13.7-22.6-28.8c6.4-18.9,2.6-35.2-7.4-51.1c2.4-0.3,6.4-0.2,4.9-3.6
			c-4.3-9.9,1-19.6-0.5-29.3c-0.7-5.1-1.2-10.8,0.5-15.4C259.9,523.8,259,522.1,258.2,519.8z"/>
		<path class="st1" d="M355.8,438.2c1.9-7.2,0.1-14.1-1.9-21c-4.7-16.5,6.9-32,23-30.8c12.3,1,21.4,9.5,22.4,20.9
			c1,12.2-6.3,22.1-18.7,25.3c-3.3,0.8-6.6,1.6-9.7,2.8c-5.2,1.9-9.3,5.3-12,10.2C357,443.5,355.2,441.3,355.8,438.2z"/>
		<path class="st2" d="M293.6,468.5c-10.9,4.9-22,2.2-28.8-7c-6.3-8.5-5.9-20.6,0.8-28.8c7.3-8.7,18.7-10.8,29.2-5.3
			c-0.2,1.8,1.3,3.2,0.6,5.2C291.6,444.5,293.7,456.6,293.6,468.5z"/>
		<path class="st0" d="M375.4,646.7c10.7,0.9,18.4,5.8,22.8,15.9c1.7,3.8,4.4,7.2,6.6,10.8c0.5,0.6,1,1.3,1.5,1.9c0,0,0-0.2,0-0.2
			c-0.7,2.9,1.9,6.3-1.5,8.7c-6.6,1.5-12.8,4.2-18.6,7.6c-2.5,1.5-5.4,2.2-8.5,1.9c-0.6-0.7-1.6-1.2-1.8-2
			c-3.4-13.1-4.7-26.2,0.3-39.1c0.8-2.1,0-2.1-1.1-2.7C373.1,648.4,374.2,647.5,375.4,646.7z"/>
		<path class="st3" d="M258.2,519.8c0.7,2.3,1.7,3.9,0.6,7.1c-1.6,4.6-1.2,10.3-0.5,15.4c1.4,9.8-3.9,19.5,0.5,29.3
			c1.5,3.4-2.5,3.3-4.9,3.6c-4.6-4.7-9.2-9.4-14.9-12.8c-3.1-3.3-1.4-7.2-1.1-10.7c1.1-11.3-2.9-22.7,1.2-33.8c0,0,0.5,0.1,0.5,0.1
			c0.7-0.3,1.4-0.5,2.1-0.8C247.7,515.9,253,517.6,258.2,519.8z"/>
		<path class="st0" d="M355.8,438.2c-0.6,3.2,1.2,5.3,3.1,7.4c-1,5.1-0.9,10.2-0.4,15.4c1,8.9-2,14.5-8.6,17.2
			c-6.9,2.8-13.5,0.7-18.6-6.6c-5.7-8.1-12.8-12.4-22.9-10.5c-1.1-4.1,3.7-3.3,5-5.6c-2.8-1.7-5.5-3.2-2.3-6.5
			C325.9,458.7,345.2,454,355.8,438.2z"/>
		<path class="st1" d="M284,655.1c-0.9-10.3-1.5-20.6-1.4-31c0-3.6,0.3-7.3-0.7-10.6c-1.1-3.9,2.9-4.1,3.6-6.4
			c3.2,1.6,6.5,3.1,9.6,4.8c9.2,5.1,13.8,15.7,11.3,25.8C303.8,648.3,295.3,654.9,284,655.1z"/>
		<path class="st1" d="M404.8,683.8c3.4-2.4,0.9-5.8,1.5-8.7c8.6,6.8,17.9,5.6,27.2,1.8c5.9-2.4,11.1-1.5,15.7,2.5
			c4.8,4.2,5.7,9.7,4,15.4c-1.7,5.7-6,9-11.7,9.9c-6.4,1-11.5-1.8-14.9-7.2C421.5,689.4,414.8,684.1,404.8,683.8z"/>
		<path class="st2" d="M357,645.7c-2.4-8.7-8.6-13.1-16.6-16.3c-11-4.4-13.5-16.9-5.2-24.6c4.8-4.4,10.4-5.2,16.3-2.4
			c6.1,2.8,9.3,9.3,7.9,16.4c-1.4,7.2-1.4,13.9,2.9,20.1C358.5,639.5,360.1,644.5,357,645.7z"/>
		<path class="st3" d="M357,645.7c3.1-1.2,1.5-6.2,5.4-6.8c3.7,3.6,8.5,5.5,13,7.8c-1.3,0.8-2.3,1.7-0.3,2.8
			c1.1,0.7,1.9,0.7,1.1,2.7c-5.1,12.9-3.7,26-0.3,39.1c0.2,0.8,1.2,1.3,1.8,2c-7.2,1.1-13-1.3-17.9-6.6c-0.5-0.6-1-1.1-1.5-1.7
			c0,0,0.1,0.1,0.1,0.1c-0.4-0.5-0.9-1-1.3-1.6c0,0,0,0,0,0c0-9.8-0.1-19.5-0.1-29.3C357,651.5,357,648.6,357,645.7z"/>
		<path class="st1" d="M281.3,523.6c-0.7-2.4,0.9-5.2-1.6-7.2c2.9-3.8,5.1-7.9,6.9-12.3c3.4-8.2,10.9-11.5,18.8-8.8
			c6.4,2.2,10.7,9.5,9.5,16.1c-1.4,7.9-8.3,13-16.9,12C292.4,522.9,286.9,521.8,281.3,523.6z"/>
		<path class="st2" d="M239.2,517.9c-4.1,11.1-0.2,22.6-1.2,33.8c-0.3,3.5-2,7.4,1.1,10.7c-11.3-4.3-17.6-12.8-17.2-23.2
			C222.3,528.8,229,520.6,239.2,517.9z"/>
		<path class="st3" d="M311.1,449c-3.2,3.3-0.5,4.8,2.3,6.5c-1.3,2.3-6.1,1.5-5,5.6c-4.9,2.5-9.9,4.9-14.8,7.4c0-12-2-24.1,1.8-35.8
			c0.7-2-0.8-3.4-0.6-5.2C304.1,431.8,306,441.6,311.1,449z"/>
		<path class="st0" d="M415.9,627c-4.3,3.8-9.1,3.3-14.1,1.5c2.5-3.9,3.9-8.2,2.7-12.6c-1.2-4.6-0.9-9.3-1.5-14c0,0,0.1,0.1,0.1,0.1
			c0.5-0.2,1.1-0.5,1.6-0.7c2.8-0.5,5.7-1.1,8.3,0.8c0.5,0.4,1.1,0.8,1.6,1.2c0,0,0.3-0.2,0.3-0.2c-1.2,2.1-0.8,5.1-0.6,6.8
			C414.7,615.5,411.1,621.8,415.9,627z"/>
		<path class="st1" d="M228.4,589.1c8.2,2.7,12.6,8.4,11.7,15.5c-0.9,7.7-6,12.2-14.5,12.8c2.2-1.8,2.8-4.2,2.8-7
			C228.3,603.2,228.4,596.2,228.4,589.1z"/>
		<path class="st1" d="M315.2,375.8c7.7,1.7,12,6.6,12.2,13.6c0.1,7.5-3.7,11.6-13.5,14.6c-0.5-0.7-1.5-1.8-1.4-2
			C318.5,393.8,314.4,384.5,315.2,375.8z"/>
		<path class="st0" d="M229.7,491.9c-2.7,1.1-5.4,1.1-8.2,0.4c-1.7-8-1.2-16.2-1.4-24.3c-0.4-0.9-0.9-1.8-1.3-2.7
			c2.6-1.7,5.4-1.8,8.2-1.2c0.5,0.3,1.1,0.5,1.6,0.8c0,0-0.1-0.2-0.1-0.2c1.1,3.2,0.4,6.8,1.2,9.9
			C231.4,480.6,227.4,486.2,229.7,491.9z"/>
		<path class="st0" d="M411.5,477.9c-3.3,1.6-6.5,1.6-9.8,0c0.1-0.6,0.1-1.2,0.2-1.7c3.3-0.4,2.7-3,2.7-5.1c0-6.9,0-13.8,0-20.7
			c3.4-0.7,6.6-0.6,9.5,1.6c-0.1,3.7-0.7,7.2-0.6,11C413.6,467.7,415.4,473.4,411.5,477.9z"/>
		<path class="st0" d="M435.8,374.8c2.1-0.9,3.8,0.1,5.5,1.2c0.5,8.5,3,17,0,25.5c-3.2,1.5-6.3,3-9.8,0.6c4-3,1.8-7.1,1.4-10.4
			c-0.6-4.4,3-9.2-1.2-13.1c0-0.4,0-0.9,0.1-1.3c1.2-0.1,2.3-0.4,2.3-2c0,0,0,0.2,0,0.2C434.7,375.2,435.3,375,435.8,374.8z"/>
		<path class="st0" d="M228.4,589.1c0,7.1-0.1,14.2,0,21.2c0.1,2.9-0.6,5.2-2.8,7c-2.5,0.4-4.8,0.1-6.8-1.5c2-3.8,1.9-7.8,0.8-11.7
			c-1.5-5.2-0.9-10,1.8-14.7C223.7,588.3,226.1,588.5,228.4,589.1z"/>
		<path class="st1" d="M319.3,678.1c6.1,1.7,9.3,5.8,9.5,12c0.2,6.7-2.4,11.8-9.2,14c-0.7-0.5-2-1.1-2-1.6
			C318.2,694.4,317.3,686.2,319.3,678.1z"/>
		<path class="st0" d="M298.9,557.5c3-0.1,6.4-1.5,8.3,2.4c0.2,8,0.4,16,0.6,24c0,0-0.1,0-0.1-0.1c-1.2-0.5-1.6,0.3-1.9,1.3
			c-2.1,1.4-4.5,1.1-6.8,0.7C298.9,576.4,298.9,566.9,298.9,557.5z"/>
		<path class="st2" d="M402.9,601.8c0.7,4.6,0.3,9.3,1.5,14c1.2,4.4-0.2,8.8-2.7,12.6c-6.2-2.5-9.1-7.5-8.8-13.8
			C393.4,608.6,396.2,603.5,402.9,601.8z"/>
		<path class="st1" d="M441.3,401.4c3-8.5,0.5-17,0-25.5c7,0.8,11.4,6.4,11,13.9C451.9,396.9,447.7,401.2,441.3,401.4z"/>
		<path class="st1" d="M229.7,491.9c-2.4-5.7,1.7-11.4,0.2-17.2c-0.8-3.1-0.2-6.6-1.2-9.9c7,1.4,10.2,6.1,10.6,12.7
			C239.7,484.5,236.6,489.5,229.7,491.9z"/>
		<path class="st0" d="M315.2,375.8c-0.9,8.8,3.3,18-2.8,26.3c-0.2,0.2,0.9,1.3,1.4,2c-1.9,0.2-3.8,0.6-5.5-0.8
			c-0.3-0.8-0.8-1.3-1.7-1.2c0,0-0.4,0.1-0.4,0.1c4.1-8.4,2-17.1,1.3-25.7c0,0,0.4,0.2,0.4,0.2c0.9,0.2,1.4-0.2,1.8-0.9
			C311.6,375.7,313.4,375.8,315.2,375.8z"/>
		<path class="st2" d="M221.4,589.4c-2.7,4.6-3.2,9.4-1.8,14.7c1.1,3.9,1.2,7.9-0.8,11.7c-6.3-2.6-8.5-7.9-7.9-14
			C211.5,595.6,214.9,591,221.4,589.4z"/>
		<path class="st0" d="M319.3,678.1c-2,8-1.1,16.3-1.7,24.5c0,0.5,1.3,1.1,2,1.6c-3.3,1.9-6.6,1.7-10,0.2c0-0.6,0.1-1.2,0.1-1.8
			c3.7-0.6,2.6-3.6,2.7-5.8c0.1-6.6,0-13.3,0-19.9C314.9,676.5,317.4,675.7,319.3,678.1z"/>
		<path class="st1" d="M415.9,627c-4.8-5.2-1.2-11.5-1.7-17.2c-0.2-1.7-0.6-4.6,0.6-6.8C424.7,609.1,425.1,619.8,415.9,627z"/>
		<path class="st1" d="M411.5,477.9c3.8-4.5,2.1-10.2,2-15c-0.1-3.7,0.5-7.3,0.6-11c5.6,3,7.9,7.8,7.3,13.8
			C420.8,471.8,417.8,476.3,411.5,477.9z"/>
		<path class="st1" d="M307.7,583.9c-0.2-8-0.4-16-0.6-24c6,0.6,7.3,5.4,7.9,9.9C315.8,575.8,314,581.2,307.7,583.9z"/>
		<path class="st3" d="M298.9,557.5c0,9.4,0,18.9,0,28.3c-2.1,0.3-3.8-0.5-5.4-1.7c0-8.4,0-16.7,0-25.1
			C295.1,557.9,296.8,557.2,298.9,557.5z"/>
		<path class="st2" d="M309.7,702.6c0,0.6-0.1,1.2-0.1,1.8c-6.7-1.6-9.5-6.5-9.8-12.7c-0.3-6.2,2.1-11.4,8.5-13.6
			c-0.3,1.1-0.7,2.1-0.7,3.2C307.8,688.4,304.3,695.9,309.7,702.6z"/>
		<path class="st2" d="M218.9,465.4c0.4,0.9,0.9,1.8,1.3,2.7c-3.3,0.5-2.7,3.1-2.7,5.2c-0.1,5.8,0,11.7,0,17.5
			C207.1,483.2,207.7,471.4,218.9,465.4z"/>
		<path class="st2" d="M293.5,559.1c0,8.4,0,16.7,0,25.1C283.4,577,283.4,566.4,293.5,559.1z"/>
		<path class="st3" d="M404.6,450.3c0,6.9,0,13.8,0,20.7c0,2.2,0.5,4.7-2.7,5.1c-0.6,0.3-1.1,0.5-1.7,0.8c0,0-0.1-0.2-0.1-0.2
			c-2.3-7.4,1.1-15.6-2.9-22.7c0,0,0.2,0,0.2,0c1,0.1,1.4-0.4,1.5-1.3c0,0,0,0.1,0,0.1c0.5-0.4,1.1-0.8,1.6-1.2
			C401.6,450.3,403.1,450.2,404.6,450.3z"/>
		<path class="st3" d="M309.7,702.6c-5.5-6.6-2-14.2-2.1-21.3c0-1.1,0.5-2.1,0.7-3.2c1.1-1.2,2.6-1.4,4.1-1.2c0,6.6,0.1,13.3,0,19.9
			C312.4,699,313.5,701.9,309.7,702.6z"/>
		<path class="st2" d="M397.2,454c4,7.2,0.6,15.3,2.9,22.7C390.7,471.6,389.4,461.6,397.2,454z"/>
		<path class="st3" d="M431.8,378.5c4.2,4,0.6,8.8,1.2,13.1c0.4,3.3,2.6,7.4-1.4,10.4c-1.6-0.6-3.1-1.4-4-2.9
			c0.6-6.6,1.5-13.1-0.4-19.7c0,0,0.1,0.1,0.1,0.1c0.9,0,1.4-0.5,1.5-1.4c0,0-0.1,0-0.1,0C429.7,378.3,430.8,378.4,431.8,378.5z"/>
		<path class="st2" d="M304.3,401.3c-9-7.7-8.4-17.8,1.3-24.1C301.9,385.1,305.1,393.3,304.3,401.3z"/>
		<path class="st3" d="M304.3,401.3c0.8-8-2.4-16.2,1.3-24.1c0.7-0.3,1.3-0.5,1.9-0.8c0.7,8.6,2.7,17.3-1.3,25.7
			C305.6,401.9,305,401.6,304.3,401.3z"/>
		<path class="st2" d="M357,654.3c0,9.8,0.1,19.5,0.1,29.3C349.7,673.9,352.8,664.1,357,654.3z"/>
		<path class="st2" d="M427.2,379.5c1.9,6.5,1,13.1,0.4,19.7C421.6,392.4,421.5,386.2,427.2,379.5z"/>
		<path class="st3" d="M217.5,490.8c0-5.8,0-11.7,0-17.5c0-2.1-0.7-4.7,2.7-5.2c0.1,8.1-0.4,16.3,1.4,24.3
			C220,492.5,218.7,491.7,217.5,490.8z"/>
		<path class="st2" d="M431.8,378.5c-1-0.1-2.1-0.3-3.1-0.4c0.6-1.4,1.6-2,3.1-2.2c0,0.4,0,0.9,0.1,1.3
			C431.8,377.7,431.8,378.1,431.8,378.5z"/>
		<path class="st1" d="M305.7,585.1c0.3-1,0.7-1.7,1.9-1.3C307.4,584.9,306.5,585,305.7,585.1z"/>
		<path class="st3" d="M431.8,377.2c0-0.4-0.1-0.9-0.1-1.3c0.8-0.2,1.6-0.4,2.4-0.6C434.2,376.8,433.1,377.1,431.8,377.2z"/>
		<path class="st2" d="M241.9,517.2c-0.7,0.3-1.4,0.5-2.1,0.8C240.5,517.7,241.2,517.4,241.9,517.2z"/>
		<path class="st3" d="M306.6,402c0.9-0.1,1.4,0.4,1.7,1.2C307.8,402.8,307.2,402.4,306.6,402z"/>
		<path class="st1" d="M228.7,465c-0.5-0.3-1.1-0.5-1.6-0.8C227.8,464.1,228.5,464.1,228.7,465z"/>
		<path class="st2" d="M404.6,601.2c-0.5,0.2-1.1,0.5-1.6,0.7C403.5,601.7,404.1,601.4,404.6,601.2z"/>
		<path class="st2" d="M428.8,378.1c0,0.9-0.5,1.4-1.5,1.4C427.8,379.1,428.3,378.6,428.8,378.1z"/>
		<path class="st1" d="M414.5,603.3c-0.5-0.4-1.1-0.8-1.6-1.2C413.7,602.1,414.5,602.2,414.5,603.3z"/>
		<path class="st3" d="M309.8,375.7c-0.4,0.7-0.9,1.2-1.8,0.9C308.6,376.3,309.2,376,309.8,375.7z"/>
		<path class="st1" d="M406.3,675.3c-0.5-0.6-1-1.3-1.5-1.9C405.3,674.1,405.8,674.7,406.3,675.3z"/>
		<path class="st2" d="M398.9,452.7c-0.1,0.9-0.5,1.4-1.5,1.3C397.9,453.6,398.4,453.1,398.9,452.7z"/>
		<path class="st3" d="M435.8,374.8c-0.5,0.2-1.1,0.5-1.6,0.7C434.7,375.2,435.3,375,435.8,374.8z"/>
		<path class="st2" d="M400.2,476.9c0.6-0.3,1.1-0.5,1.7-0.8c-0.1,0.6-0.1,1.2-0.2,1.7C401.2,477.6,400.7,477.3,400.2,476.9z"/>
		<path class="st2" d="M400.5,451.6c-0.5,0.4-1.1,0.8-1.6,1.2C399.4,452.4,400,452,400.5,451.6z"/>
		<path class="st2" d="M357.2,683.6c0.4,0.5,0.9,1,1.3,1.6C358,684.7,357.6,684.1,357.2,683.6z"/>
		<path class="st2" d="M358.3,685.1c0.5,0.6,1,1.1,1.5,1.7C359.3,686.2,358.8,685.6,358.3,685.1z"/>
	</g>
	<text transform="matrix(1 0 0 1 336.5312 571.9742)" class="st4 st5">QUNTAP</text>
	<text transform="matrix(1 0 0 1 428.9453 602.7521)" class="st6 st7">QUANTUM AND NANOTECHNOLOGY RESEARCH PLATFORM</text>
</g>
</svg>
