<?xml version="1.0" encoding="utf-8"?>
<!-- Generator: Adobe Illustrator 26.0.1, SVG Export Plug-In . SVG Version: 6.00 Build 0)  -->
<svg version="1.1" id="Layer_1" xmlns="http://www.w3.org/2000/svg" xmlns:xlink="http://www.w3.org/1999/xlink" x="0px" y="0px"
	 viewBox="0 0 1080 1080" style="enable-background:new 0 0 1080 1080;" xml:space="preserve">
<style type="text/css">
	.st0{fill:#3784F9;}
	.st1{fill:#16A3F9;}
	.st2{fill:#5E67F8;}
	.st3{fill:#4D71F9;}
	.st4{fill:#FFFFFF;}
	.st5{font-family:'MonumentExtended-Regular';}
	.st6{font-size:146.3837px;}
	.st7{font-family:'ArialMT';}
	.st8{font-size:22.6325px;}
</style>
<g>
	<g>
		<path class="st0" d="M117.7,509.8c11.4,2.4,22.3,2.3,32.1-5.1c3.7,2.9,1.3,7.3,2.4,10.8c-9.5,5.7-15.1,14.3-17.7,24.8
			c-3.3,13.3-8.5,26-7.8,40.4c1.2,25.3,13.6,44,31.9,59.9c-1.1,3.6-7.1,3.8-5.4,9.7c1.4,5,1.1,10.6,1,15.9
			c-0.2,15.5,0.8,31,2.1,46.4c-23.7,0.4-41.6-20.5-33.9-43.2c9.7-28.3,3.9-52.7-11.1-76.6c3.5-0.4,9.5-0.3,7.3-5.4
			c-6.5-14.8,1.5-29.3-0.7-43.9c-1.1-7.6-1.7-16.1,0.7-23.1C120.2,515.7,118.8,513.2,117.7,509.8z"/>
		<path class="st1" d="M264,387.4c2.8-10.8,0.1-21.1-2.8-31.5c-7.1-24.7,10.4-48,34.4-46.2c18.5,1.4,32.1,14.2,33.5,31.4
			c1.5,18.3-9.5,33.2-28.1,37.9c-4.9,1.2-9.8,2.5-14.5,4.2c-7.7,2.9-13.9,7.9-17.9,15.3C265.7,395.4,263,392.1,264,387.4z"/>
		<path class="st2" d="M170.8,432.9c-16.3,7.3-33,3.3-43.2-10.4c-9.4-12.7-8.9-30.9,1.3-43.1c10.9-13.1,28-16.2,43.7-7.9
			c-0.3,2.6,1.9,4.7,0.9,7.8C167.8,396.8,170.8,415,170.8,432.9z"/>
		<path class="st0" d="M293.4,699.9c16,1.3,27.6,8.7,34.2,23.9c2.5,5.7,6.5,10.8,9.8,16.2c0.8,0.9,1.5,1.9,2.3,2.8
			c0,0,0-0.2-0.1-0.2c-1,4.3,2.8,9.5-2.3,13c-9.9,2.3-19.1,6.3-27.9,11.4c-3.8,2.2-8.1,3.2-12.7,2.8c-0.9-1-2.3-1.8-2.6-3
			c-5-19.6-7.1-39.2,0.5-58.6c1.2-3.1,0-3.1-1.7-4.1C289.9,702.4,291.5,701.1,293.4,699.9z"/>
		<path class="st3" d="M117.7,509.8c1.1,3.4,2.5,5.9,0.9,10.6c-2.4,7-1.8,15.5-0.7,23.1c2.2,14.6-5.8,29.2,0.7,43.9
			c2.2,5.1-3.8,4.9-7.3,5.4c-6.9-7-13.8-14-22.3-19.2c-4.6-4.9-2.1-10.8-1.6-16.1c1.6-16.9-4.3-34,1.9-50.7c0,0,0.8,0.2,0.8,0.2
			c1.1-0.4,2.1-0.8,3.2-1.2C101.9,503.8,109.9,506.4,117.7,509.8z"/>
		<path class="st0" d="M264,387.4c-1,4.8,1.8,8,4.6,11.2c-1.5,7.7-1.4,15.4-0.5,23.1c1.4,13.3-3,21.8-12.8,25.8
			c-10.4,4.2-20.2,1.1-27.9-9.9c-8.5-12.1-19.2-18.6-34.4-15.8c-1.7-6.1,5.5-5,7.5-8.3c-4.2-2.5-8.3-4.8-3.4-9.8
			C219.2,418.2,248,411.1,264,387.4z"/>
		<path class="st1" d="M156.3,712.5c-1.3-15.5-2.3-30.9-2.1-46.4c0.1-5.3,0.4-10.9-1-15.9c-1.6-5.8,4.4-6.1,5.4-9.7
			c4.8,2.4,9.7,4.6,14.4,7.2c13.7,7.7,20.6,23.6,16.9,38.6C186,702.4,173.3,712.2,156.3,712.5z"/>
		<path class="st1" d="M337.3,755.6c5.1-3.6,1.3-8.7,2.3-13c12.9,10.2,26.8,8.4,40.7,2.7c8.8-3.6,16.6-2.3,23.5,3.8
			c7.1,6.2,8.5,14.5,6,23.1c-2.5,8.5-8.9,13.5-17.6,14.8c-9.7,1.5-17.2-2.7-22.3-10.8C362.4,763.9,352.3,755.9,337.3,755.6z"/>
		<path class="st2" d="M265.8,698.4c-3.5-13-12.9-19.6-24.9-24.4c-16.5-6.6-20.3-25.4-7.8-36.9c7.2-6.6,15.7-7.7,24.5-3.6
			c9.1,4.3,14,13.9,11.8,24.6c-2.1,10.7-2.1,20.8,4.4,30.1C268,689.1,270.4,696.6,265.8,698.4z"/>
		<path class="st3" d="M265.8,698.4c4.7-1.8,2.2-9.3,8.1-10.2c5.6,5.4,12.8,8.2,19.5,11.7c-1.9,1.2-3.5,2.5-0.5,4.3
			c1.7,1,2.9,1,1.7,4.1c-7.6,19.4-5.5,39-0.5,58.6c0.3,1.1,1.7,2,2.6,3c-10.8,1.7-19.6-2-26.8-9.8c-0.7-0.8-1.5-1.7-2.2-2.5
			c0,0,0.2,0.2,0.2,0.2c-0.6-0.8-1.3-1.6-1.9-2.3c0,0,0,0,0,0c-0.1-14.6-0.1-29.3-0.2-43.9C265.8,707,265.8,702.7,265.8,698.4z"/>
		<path class="st1" d="M152.3,515.4c-1.1-3.5,1.3-7.8-2.4-10.8c4.3-5.7,7.6-11.8,10.4-18.4c5.2-12.2,16.3-17.2,28.1-13.1
			c9.6,3.3,16,14.2,14.3,24.2c-2.1,11.9-12.4,19.5-25.3,18C168.9,514.3,160.6,512.7,152.3,515.4z"/>
		<path class="st2" d="M89.2,506.8c-6.2,16.7-0.3,33.8-1.9,50.7c-0.5,5.3-3,11.2,1.6,16.1c-16.9-6.4-26.4-19.2-25.7-34.7
			C63.9,523.3,73.9,510.9,89.2,506.8z"/>
		<path class="st3" d="M197,403.7c-4.8,5-0.7,7.2,3.4,9.8c-2,3.4-9.2,2.2-7.5,8.3c-7.4,3.7-14.8,7.4-22.2,11.1
			c0.1-17.9-3-36.1,2.7-53.6c1-3.1-1.1-5.2-0.9-7.8C186.5,377.8,189.3,392.6,197,403.7z"/>
		<path class="st0" d="M354,670.3c-6.5,5.6-13.7,5-21.1,2.2c3.8-5.8,5.8-12.3,4-18.9c-1.9-7-1.3-14-2.3-21c0,0,0.1,0.2,0.1,0.2
			c0.8-0.4,1.6-0.7,2.4-1.1c4.3-0.8,8.5-1.7,12.4,1.2c0.8,0.6,1.6,1.2,2.5,1.9c0,0,0.4-0.4,0.4-0.4c-1.8,3.2-1.2,7.6-0.9,10.2
			C352.2,653.2,346.8,662.5,354,670.3z"/>
		<path class="st1" d="M73.1,613.6c12.3,4,18.8,12.6,17.6,23.2c-1.3,11.5-9,18.3-21.7,19.2c3.3-2.8,4.3-6.2,4.2-10.5
			C72.9,634.8,73,624.2,73.1,613.6z"/>
		<path class="st1" d="M203.1,293.9c11.5,2.6,18,9.9,18.2,20.5c0.2,11.3-5.5,17.4-20.3,21.9c-0.7-1-2.3-2.6-2.1-3
			C208.1,320.9,201.8,307,203.1,293.9z"/>
		<path class="st0" d="M75,467.9c-4,1.7-8.1,1.7-12.2,0.6c-2.6-12-1.8-24.2-2-36.4c-0.7-1.3-1.3-2.6-2-4c3.9-2.5,8-2.7,12.4-1.7
			c0.8,0.4,1.6,0.8,2.4,1.1c0,0-0.1-0.3-0.1-0.3c1.6,4.8,0.7,10.1,1.9,14.8C77.5,450.9,71.5,459.3,75,467.9z"/>
		<path class="st0" d="M347.5,446.9c-4.9,2.4-9.8,2.5-14.7,0c0.1-0.9,0.2-1.7,0.2-2.6c4.9-0.6,4.1-4.5,4.1-7.7c0-10.3,0-20.7,0-31
			c5.1-1.1,9.9-1,14.2,2.4c-0.2,5.5-1,10.8-0.9,16.4C350.6,431.7,353.2,440.1,347.5,446.9z"/>
		<path class="st0" d="M383.8,292.4c3.2-1.3,5.7,0.1,8.2,1.8c0.8,12.7,4.5,25.4,0,38.2c-4.7,2.3-9.5,4.5-14.6,1
			c5.9-4.4,2.7-10.6,2.1-15.6c-0.9-6.6,4.5-13.7-1.8-19.7c0-0.6,0.1-1.3,0.1-1.9c1.8-0.2,3.5-0.6,3.5-2.9c0,0-0.1,0.2,0,0.3
			C382.2,293.1,383,292.7,383.8,292.4z"/>
		<path class="st0" d="M73.1,613.6c0,10.6-0.2,21.2,0,31.8c0.1,4.3-0.9,7.8-4.2,10.5c-3.7,0.5-7.2,0.2-10.2-2.3
			c3-5.7,2.8-11.7,1.2-17.6c-2.2-7.9-1.4-15,2.6-22C66,612.4,69.5,612.6,73.1,613.6z"/>
		<path class="st1" d="M209.3,747c9.1,2.6,13.9,8.7,14.2,18c0.3,10-3.5,17.7-13.8,21c-1.1-0.8-3.1-1.7-3-2.4
			C207.6,771.4,206.2,759,209.3,747z"/>
		<path class="st0" d="M178.6,566.2c4.5-0.1,9.6-2.3,12.4,3.6c0.3,12,0.6,24,0.8,36c0,0-0.2-0.1-0.2-0.1c-1.8-0.7-2.4,0.4-2.8,1.9
			c-3.2,2.1-6.7,1.7-10.2,1.1C178.6,594.5,178.6,580.4,178.6,566.2z"/>
		<path class="st2" d="M334.6,632.7c1,7,0.4,14,2.3,21c1.8,6.6-0.2,13.1-4,18.9c-9.2-3.8-13.7-11.3-13.1-20.6
			C320.3,642.8,324.5,635.1,334.6,632.7z"/>
		<path class="st1" d="M392.1,332.4c4.5-12.7,0.7-25.4,0-38.2c10.5,1.3,17.1,9.6,16.4,20.9C407.9,325.5,401.7,332,392.1,332.4z"/>
		<path class="st1" d="M75,467.9c-3.5-8.6,2.5-17,0.3-25.8c-1.2-4.7-0.3-10-1.9-14.8c10.5,2,15.4,9.1,15.9,19.1
			C89.9,456.8,85.2,464.4,75,467.9z"/>
		<path class="st0" d="M203.1,293.9c-1.3,13.1,5,27-4.1,39.4c-0.2,0.3,1.3,1.9,2.1,3c-2.9,0.3-5.7,0.8-8.2-1.3
			c-0.4-1.2-1.2-1.9-2.5-1.8c0,0-0.6,0.2-0.5,0.2c6.1-12.6,3-25.6,2-38.5c0,0,0.6,0.3,0.6,0.3c1.3,0.4,2.1-0.3,2.6-1.4
			C197.7,293.8,200.4,293.9,203.1,293.9z"/>
		<path class="st2" d="M62.6,614.1c-4,7-4.8,14.1-2.6,22c1.6,5.8,1.8,11.9-1.2,17.6c-9.4-3.9-12.7-11.8-11.8-21
			C47.7,623.3,52.9,616.5,62.6,614.1z"/>
		<path class="st0" d="M209.3,747c-3.1,12-1.7,24.4-2.6,36.6c-0.1,0.7,2,1.6,3,2.4c-4.9,2.9-9.9,2.5-15,0.3c0.1-0.9,0.1-1.8,0.2-2.7
			c5.6-0.9,3.9-5.4,4-8.7c0.2-9.9,0-19.9,0-29.8C202.6,744.6,206.4,743.4,209.3,747z"/>
		<path class="st1" d="M354,670.3c-7.1-7.8-1.8-17.2-2.5-25.7c-0.2-2.6-0.8-6.9,0.9-10.2C367.2,643.6,367.9,659.6,354,670.3z"/>
		<path class="st1" d="M347.5,446.9c5.7-6.8,3.1-15.2,3-22.4c-0.1-5.6,0.7-11,0.9-16.4c8.3,4.4,11.9,11.6,10.9,20.7
			C361.3,437.8,356.9,444.5,347.5,446.9z"/>
		<path class="st1" d="M191.8,605.8c-0.3-12-0.6-24-0.8-36c9,0.9,11,8,11.8,14.8C204,593.7,201.4,601.8,191.8,605.8z"/>
		<path class="st3" d="M178.6,566.2c0,14.2,0,28.3,0,42.5c-3.1,0.5-5.7-0.8-8.1-2.5c0-12.5,0-25.1,0-37.6
			C172.9,566.9,175.5,565.8,178.6,566.2z"/>
		<path class="st2" d="M194.9,783.6c-0.1,0.9-0.1,1.8-0.2,2.7c-10-2.4-14.2-9.8-14.7-19.1c-0.5-9.3,3.1-17,12.8-20.4
			c-0.4,1.6-1.1,3.2-1.1,4.8C192,762.4,186.7,773.7,194.9,783.6z"/>
		<path class="st2" d="M58.7,428.1c0.7,1.3,1.3,2.6,2,4c-5,0.7-4,4.6-4,7.8c-0.1,8.8,0,17.5,0,26.3C41,454.9,42,437.1,58.7,428.1z"
			/>
		<path class="st2" d="M170.5,568.6c0,12.5,0,25.1,0,37.6C155.4,595.4,155.4,579.5,170.5,568.6z"/>
		<path class="st3" d="M337.2,405.6c0,10.3,0,20.7,0,31c0,3.2,0.8,7-4.1,7.7c-0.8,0.4-1.7,0.8-2.5,1.1c0,0-0.2-0.3-0.2-0.3
			c-3.4-11.1,1.6-23.3-4.3-34.1c0,0,0.3,0,0.3,0c1.4,0.1,2.1-0.6,2.2-2c0,0-0.1,0.2-0.1,0.2c0.8-0.6,1.6-1.2,2.5-1.8
			C332.6,405.6,334.8,405.4,337.2,405.6z"/>
		<path class="st3" d="M194.9,783.6c-8.2-9.9-3-21.2-3.2-32c0-1.6,0.7-3.2,1.1-4.8c1.7-1.9,3.8-2.1,6.1-1.8c0,9.9,0.1,19.9,0,29.8
			C198.9,778.3,200.5,782.7,194.9,783.6z"/>
		<path class="st2" d="M326,411.1c5.9,10.8,0.9,23,4.3,34.1C316.3,437.4,314.3,422.5,326,411.1z"/>
		<path class="st3" d="M377.8,298c6.3,6,0.9,13.1,1.8,19.7c0.7,5,3.8,11.2-2.1,15.6c-2.4-0.9-4.6-2.1-6-4.4
			c0.9-9.8,2.3-19.7-0.5-29.4c0,0,0.1,0.1,0.1,0.1c1.4,0,2.1-0.7,2.2-2.1c0,0-0.1-0.1-0.1-0.1C374.7,297.6,376.3,297.8,377.8,298z"
			/>
		<path class="st2" d="M186.8,332.2c-13.4-11.6-12.6-26.6,2-36.1C183.2,307.8,188,320.2,186.8,332.2z"/>
		<path class="st3" d="M186.8,332.2c1.2-12-3.6-24.3,2-36.1c1-0.4,2-0.8,2.9-1.2c1,12.9,4.1,25.9-2,38.5
			C188.7,333,187.8,332.6,186.8,332.2z"/>
		<path class="st2" d="M265.8,711.3c0.1,14.6,0.1,29.3,0.2,43.9C254.8,740.7,259.5,726,265.8,711.3z"/>
		<path class="st2" d="M371,299.4c2.8,9.8,1.5,19.6,0.5,29.4C362.5,318.8,362.4,309.4,371,299.4z"/>
		<path class="st3" d="M56.7,466.3c0-8.8-0.1-17.5,0-26.3c0-3.2-1-7.1,4-7.8c0.2,12.2-0.6,24.4,2,36.4
			C60.4,468.7,58.5,467.7,56.7,466.3z"/>
		<path class="st2" d="M377.8,298c-1.6-0.2-3.1-0.4-4.7-0.7c0.9-2,2.5-3.1,4.6-3.2c0,0.6,0,1.3,0.1,1.9
			C377.9,296.7,377.9,297.4,377.8,298z"/>
		<path class="st1" d="M188.8,607.6c0.4-1.4,1-2.6,2.8-1.9C191.4,607.3,190.1,607.5,188.8,607.6z"/>
		<path class="st3" d="M377.9,296.1c0-0.6-0.1-1.3-0.1-1.9c1.2-0.3,2.4-0.6,3.6-1C381.4,295.5,379.7,295.9,377.9,296.1z"/>
		<path class="st2" d="M93.2,505.8c-1.1,0.4-2.1,0.8-3.2,1.2C91.1,506.6,92.1,506.2,93.2,505.8z"/>
		<path class="st3" d="M190.3,333.2c1.3-0.1,2.1,0.5,2.5,1.8C192,334.4,191.1,333.8,190.3,333.2z"/>
		<path class="st1" d="M73.5,427.5c-0.8-0.4-1.6-0.8-2.4-1.1C72.1,426.3,73.2,426.2,73.5,427.5z"/>
		<path class="st2" d="M337.1,631.7c-0.8,0.4-1.6,0.7-2.4,1.1C335.5,632.4,336.3,632.1,337.1,631.7z"/>
		<path class="st2" d="M373.3,297.4c-0.1,1.4-0.8,2.1-2.2,2.1C371.8,298.8,372.6,298.1,373.3,297.4z"/>
		<path class="st1" d="M352,634.8c-0.8-0.6-1.6-1.2-2.5-1.9C350.7,633.1,351.9,633.3,352,634.8z"/>
		<path class="st3" d="M194.9,293.8c-0.5,1.1-1.3,1.7-2.6,1.4C193.2,294.7,194.1,294.3,194.9,293.8z"/>
		<path class="st1" d="M339.7,742.8c-0.8-0.9-1.5-1.9-2.3-2.8C338.2,740.9,338.9,741.9,339.7,742.8z"/>
		<path class="st2" d="M328.6,409.2c-0.1,1.4-0.8,2.1-2.2,2C327.1,410.5,327.8,409.8,328.6,409.2z"/>
		<path class="st3" d="M383.8,292.4c-0.8,0.3-1.6,0.7-2.5,1C382.2,293.1,383,292.7,383.8,292.4z"/>
		<path class="st2" d="M330.5,445.5c0.8-0.4,1.7-0.8,2.5-1.1c-0.1,0.9-0.2,1.7-0.2,2.6C332,446.5,331.3,446,330.5,445.5z"/>
		<path class="st2" d="M331,407.5c-0.8,0.6-1.6,1.2-2.5,1.8C329.3,408.7,330.2,408.1,331,407.5z"/>
		<path class="st2" d="M266,755.2c0.6,0.8,1.3,1.6,1.9,2.3C267.3,756.8,266.6,756,266,755.2z"/>
		<path class="st2" d="M267.7,757.4c0.7,0.8,1.5,1.7,2.2,2.5C269.2,759.1,268.5,758.2,267.7,757.4z"/>
	</g>
	<text transform="matrix(1 0 0 1 235.0688 587.9181)" class="st4 st5 st6">QUNTAP</text>
	<text transform="matrix(1 0 0 1 373.5669 634.0431)" class="st4 st7 st8">QUANTUM AND NANOTECHNOLOGY RESEARCH PLATFORM</text>
</g>
</svg>
